<svg xmlns="http://www.w3.org/2000/svg" viewBox="0 0 512 512" role="img" aria-labelledby="title">
  <title>Copilot Web</title>
  <defs>
    <linearGradient id="bg" x1="96" y1="64" x2="416" y2="448" gradientUnits="userSpaceOnUse">
      <stop offset="0" stop-color="#2563eb"/>
      <stop offset="1" stop-color="#0f172a"/>
    </linearGradient>
    <linearGradient id="bubble" x1="160" y1="148" x2="352" y2="364" gradientUnits="userSpaceOnUse">
      <stop offset="0" stop-color="#f8fafc"/>
      <stop offset="1" stop-color="#cbd5e1"/>
    </linearGradient>
  </defs>
  <rect width="512" height="512" rx="112" fill="url(#bg)"/>
  <path d="M152 160h208c26.5 0 48 21.5 48 48v96c0 26.5-21.5 48-48 48H264l-56 40v-40h-56c-26.5 0-48-21.5-48-48v-96c0-26.5 21.5-48 48-48z" fill="url(#bubble)"/>
  <path d="M202 223c0-10.5 8.5-19 19-19h70c10.5 0 19 8.5 19 19s-8.5 19-19 19h-70c-10.5 0-19-8.5-19-19zm0 66c0-10.5 8.5-19 19-19h92c10.5 0 19 8.5 19 19s-8.5 19-19 19h-92c-10.5 0-19-8.5-19-19z" fill="#2563eb"/>
</svg>

